<svg xmlns="http://www.w3.org/2000/svg" xmlns:xlink="http://www.w3.org/1999/xlink" width="743.063" height="128.693" viewBox="0 0 196.602 34.05" xmlns:v="https://vecta.io/nano"><path d="M0 4.314h4.541L5.951 0l1.418 4.314h4.533L8.233 6.99l1.41 4.306-3.692-2.668-3.684 2.668L3.67 6.99zm13.919 0h4.541L19.87 0l1.418 4.314h4.533L22.152 6.99l1.41 4.306-3.692-2.668-3.684 2.668 1.402-4.306z"/><use xlink:href="#B"/><path d="M52.834 2.611q0 1.118-1.056 1.832l-.357-.714q.59-.528.59-1.04 0-.699-.714-1.056V.779q.668.124 1.102.637.435.512.435 1.195zm1.506 2.826q0 .559-.202 1.009-.186.435-.714 1.04l-.388-.73q.233-.373.233-.699 0-.279-.124-.528l-.14-.217-.062-.233q0-.186.248-.342.264-.155.605-.155.543 0 .543.854zm.481 5.372q0 .419-.543.419h-3.214l-3.462-6.21q-.155-.295-.279-.807-.124-.528-.124-.947 0-1.071.854-1.848.854-.776 2.08-.776l.497.047v.947q-.481.171-.481.683 0 .357.202.714l3.664 6.847q.202.357.543.559.264.155.264.373zm-4.658.016q-.963.606-2.08.606-1.335 0-2.298-.869-.963-.869-.963-2.096 0-1.289 1.258-2.298.528-.435 1.18-.652l.342.699q-.186.264-.186.45 0 .155.186.512l1.382 2.562q.202.388.559.388h.217zm16.039-.001q0 .404-.574.404h-3.804q-.574 0-.574-.435 0-.233.279-.388.295-.124.295-.295l-.062-.233-.963-2.903q-.047-.155-.093-.357-.047-.217-.047-.326 0-.279.233-.574l1.801-2.546q.264-.357.264-.745 0-.497-.419-.652l-.279-.124q-.248-.109-.248-.357 0-.419.497-.419h2.701q.559 0 .559.45 0 .326-.342.45l-.404.171q-.14.047-.342.186-.202.14-.373.295-.171.155-.295.295-.109.14-.342.45l-.512.714 2.282 5.993q.171.435.45.559.186.078.248.155.062.078.062.233zm-5.263-9.533q0 .295-.326.404-.311.093-.388.186-.062.078-.062.373v7.592q0 .419.217.497l.233.078q.295.093.295.404 0 .404-.543.404h-.202-3.385-.202q-.574 0-.574-.419 0-.295.311-.388.326-.109.388-.186.078-.093.078-.388V2.254q0-.295-.078-.373-.062-.093-.388-.186-.311-.109-.311-.404 0-.419.574-.419h.202 3.385.202q.574 0 .574.419zm19.655 3.012q0 .574-.435.574-.357 0-.466-.497-.668-2.546-2.22-2.795v-.9q.357.047.59.109.233.062.838.295.357.14.512.14.217 0 .326-.202l.093-.186q.093-.171.342-.171.419 0 .419.481zm.016 4.378q0 .373-.326.932-.311.543-.792.978-.466.435-.947.637-.466.202-1.071.202v-.932q.761 0 1.382-.512.637-.528.885-1.32.155-.45.45-.45.171 0 .295.14.124.124.124.326zm-3.757 2.748q-2.096 0-3.291-1.397-1.195-1.397-1.195-3.819 0-2.174.994-3.617.59-.838 1.522-1.382.932-.543 1.754-.543h.217v.916q-.869.14-.869 1.32v6.272.326q0 .435.233.699.233.264.637.295zm13.802-5.371q0 2.36-1.149 3.835-1.195 1.537-3.152 1.537v-.838q.699-.171.699-1.258V2.549q0-.45-.155-.683-.155-.248-.543-.373V.67q1.91 0 3.105 1.522 1.195 1.522 1.195 3.866zm-4.922 5.372q-1.956 0-3.136-1.506-1.164-1.506-1.164-3.866 0-2.344 1.195-3.866Q83.824.67 85.733.67v.823q-.388.124-.543.357-.155.233-.155.699v6.785q0 .637.14.9.155.248.559.357z"/><use xlink:href="#B" x="58.702"/><path d="M112.996 8.511q0 1.444-1.133 2.174-.497.295-1.04.419-.543.124-1.428.124h-.869v-.792q1.025 0 1.025-1.18V7.533q0-.606-.233-.9-.233-.295-.792-.373v-.792q.574 0 .792-.279.233-.295.233-1.009V2.875q0-1.071-1.025-1.164V.872h.838q1.677 0 2.577.652.916.652.916 1.848 0 1.32-1.04 1.941-.311.186-.652.311-.326.109-.916.248.621.124.869.202.264.078.59.233 1.289.652 1.289 2.205zm-5.092 2.717h-3.385-.202q-.574 0-.574-.419 0-.295.311-.388.326-.109.388-.186.078-.093.078-.388V2.254q0-.295-.078-.373-.062-.093-.388-.186-.311-.109-.311-.404 0-.419.574-.419h.202 3.385z"/><use xlink:href="#C"/><path d="M129.81 1.291q0 .155-.062.233-.062.062-.357.217-.745.404-.745 1.475v3.447l-.792-1.351V3.216q0-.637-.186-.978-.186-.342-.652-.574-.279-.14-.279-.404 0-.388.559-.388h1.894q.621 0 .621.419zm-1.164 9.936h-2.065l-5.139-8.865q-.186-.311-.295-.404-.093-.109-.264-.171l-.279-.109q-.248-.078-.248-.357 0-.326.217-.388.233-.062.714-.062h3.322l4.037 7.002zm-5.248-.388q0 .388-.652.388h-1.739q-.683 0-.683-.404 0-.202.388-.419.73-.404.73-1.459V3.527l.792 1.351v4.068q0 .994.745 1.428l.217.124q.202.109.202.342zm16.333.016q0 .373-.59.373h-3.788q-.497 0-.497-.404 0-.14.062-.217.078-.093.248-.186.171-.093.248-.466 0-.062.031-.171l-.248-1.102h-2.111l.202-.932h1.708l-1.397-6.133.186-.745h3.059l2.096 8.912q.093.342.155.466.078.109.295.186.342.14.342.419zm-6.086-6.474l-1.351 4.891-.047.404q0 .186.342.497.109.093.357.295.264.14.264.388 0 .373-.559.373h-1.848q-.295 0-.497-.109-.186-.109-.186-.311 0-.233.342-.388.481-.217.699-.481.217-.279.388-.885l1.708-6.241zm14.998-.373q0 .497-.45.497-.373 0-.481-.481l-.078-.466q-.217-1.32-.978-1.754V.872h1.987zm-6.614-2.205q-.761.435-.994 1.754l-.078.466q-.078.481-.466.481-.45 0-.45-.497V.872h1.987zm4.953 8.989q0 .435-.683.435h-.248-3.4-.264q-.668 0-.668-.435 0-.311.311-.373.326-.078.466-.155.155-.093.155-.481V.872h3.385v8.912q0 .311.093.419.093.109.466.202.388.078.388.388z"/><use xlink:href="#C" x="35.523"/><path d="M163.718 3.574q0 .45-.373.45-.171 0-.202-.016-.109-.047-.202-.326-.559-1.723-2.298-1.91v-.9h3.074zm-1.304 3.835q0 .357-.078.497-.078.124-.295.124-.311 0-.435-.45-.248-.994-.963-1.18v-.885q.419-.202.637-.45.217-.248.295-.606.093-.373.171-.466.093-.109.295-.109.217 0 .295.124.078.124.078.512zm1.413 3.819h-3.183v-.823q.932-.124 1.475-.59.543-.466.885-1.397.171-.419.419-.419.233 0 .311.124.093.109.093.435zm-3.819 0h-3.385-.202q-.574 0-.574-.419 0-.295.311-.388.326-.109.388-.186.078-.093.078-.388V2.254q0-.295-.078-.373-.062-.093-.388-.186-.311-.109-.311-.404 0-.419.574-.419h.202 3.385zm10.774-6.914h4.541L176.733 0l1.418 4.314h4.533l-3.669 2.676 1.41 4.306-3.692-2.668-3.684 2.668 1.402-4.306zm13.918 0h4.541L190.651 0l1.418 4.314h4.533l-3.669 2.676 1.41 4.306-3.692-2.668-3.684 2.668 1.402-4.306zM83.078 33.677q0 .373-.59.373H78.7q-.497 0-.497-.404 0-.14.062-.217.078-.093.248-.186.171-.093.248-.466 0-.062.031-.171l-.248-1.102h-2.111l.202-.932h1.708l-1.397-6.133.186-.745h3.059l2.096 8.912q.093.342.155.466.078.109.295.186.342.14.342.419zm-6.086-6.474l-1.351 4.891-.047.404q0 .186.342.497.109.093.357.295.264.14.264.388 0 .373-.559.373H74.15q-.295 0-.497-.109-.186-.109-.186-.311 0-.233.342-.388.481-.217.699-.481.217-.279.388-.885l1.708-6.241z"/><use xlink:href="#D"/><path d="M103.603 24.114q0 .155-.062.233-.062.062-.357.217-.745.404-.745 1.475v3.447l-.792-1.351v-2.096q0-.637-.186-.978-.186-.342-.652-.574-.279-.14-.279-.404 0-.388.559-.388h1.894q.621 0 .621.419zm-1.164 9.936h-2.065l-5.139-8.865q-.186-.311-.295-.404-.093-.109-.264-.171l-.279-.109q-.248-.078-.248-.357 0-.326.217-.388.233-.062.714-.062h3.322l4.037 7.002zm-5.248-.388q0 .388-.652.388H94.8q-.683 0-.683-.404 0-.202.388-.419.73-.404.73-1.459V26.35l.792 1.351v4.068q0 .994.745 1.428l.217.124q.202.109.202.342zm15.215-7.266q0 .45-.373.45-.171 0-.202-.016-.109-.047-.202-.326-.559-1.723-2.298-1.91v-.9h3.074zm-1.304 3.835q0 .357-.078.497-.078.124-.295.124-.311 0-.435-.45-.248-.994-.963-1.18v-.885q.419-.202.637-.45.217-.248.295-.606.093-.373.171-.466.093-.109.295-.109.217 0 .295.124.078.124.078.512zm1.413 3.819h-3.183v-.823q.932-.124 1.475-.59.543-.466.885-1.397.171-.419.419-.419.233 0 .311.124.093.109.093.435zm-3.819 0h-3.385-.202q-.574 0-.574-.419 0-.295.311-.388.326-.109.388-.186.078-.093.078-.388v-7.592q0-.295-.078-.373-.062-.093-.388-.186-.311-.109-.311-.404 0-.419.574-.419h.202 3.385z"/><use xlink:href="#D" x="29.948"/><defs ><path id="B" d="M43.799 10.808q0 .419-.559.419h-.202-3.4-.264q-.668 0-.668-.435 0-.311.311-.373.326-.078.466-.155.155-.093.155-.481V.872h3.4.202q.559 0 .559.419 0 .295-.326.404-.311.093-.388.186-.062.078-.062.373v7.592q0 .279.078.373.078.093.388.202.311.093.311.388zm-4.782-5.465l-1.754 5.884h-.388l-2.95-8.725q-.124-.388-.264-.528-.124-.155-.512-.233-.373-.078-.373-.45 0-.419.543-.419h3.555l1.49 4.254.652-2.298zm-3.136 5.512q0 .373-.574.373h-1.894q-.574 0-.574-.388 0-.186.248-.326.838-.45.838-1.568v-4.58l.792 2.298v2.282q0 .963.59 1.335l.279.171q.295.186.295.404z"/><path id="C" d="M119.082 10.808q0 .419-.574.419h-.202-3.385-.202q-.574 0-.574-.419 0-.295.311-.388.326-.109.388-.186.078-.093.078-.388V2.254q0-.295-.078-.373-.062-.093-.388-.186-.311-.109-.311-.404 0-.419.574-.419h.202 3.385.202q.574 0 .574.419 0 .295-.326.404-.311.093-.388.186-.062.078-.062.373v7.592q0 .295.062.388.078.078.388.186.326.093.326.388z"/><path id="D" d="M93.186 24.114q0 .155-.062.233-.062.062-.357.217-.745.404-.745 1.475v3.447l-.792-1.351v-2.096q0-.637-.186-.978-.186-.342-.652-.574-.279-.14-.279-.404 0-.388.559-.388h1.894q.621 0 .621.419zm-1.164 9.936h-2.065l-5.139-8.865q-.186-.311-.295-.404-.093-.109-.264-.171l-.279-.109q-.248-.078-.248-.357 0-.326.217-.388.233-.062.714-.062h3.322l4.037 7.002zm-5.248-.388q0 .388-.652.388h-1.739q-.683 0-.683-.404 0-.202.388-.419.73-.404.73-1.459v-5.418l.792 1.351v4.068q0 .994.745 1.428l.217.124q.202.109.202.342z"/></defs></svg>